<svg width="200" height="200" viewBox="0 0 200 200" fill="none" xmlns="http://www.w3.org/2000/svg">
<path d="M60.2917 24.1932C60.6206 24.481 60.9084 24.8099 61.155 25.1799C61.4017 25.5498 61.525 25.9609 61.6072 26.4132H65.4305C65.3071 25.3854 65.0194 24.481 64.5672 23.6588C64.1149 22.8777 63.5394 22.1788 62.8405 21.6444C62.1828 21.11 61.3606 20.6989 60.4973 20.4111C59.634 20.1233 58.6884 20 57.7018 20C56.3452 20 55.1119 20.2467 54.0019 20.74C52.8919 21.2333 51.9464 21.8911 51.2064 22.7544C50.4664 23.6177 49.8909 24.6043 49.4798 25.7554C49.0687 26.9065 48.8631 28.1398 48.8631 29.4964C48.8631 30.8119 49.0687 32.0452 49.4798 33.1552C49.8909 34.3063 50.4664 35.2929 51.2064 36.1151C51.9875 36.9373 52.8919 37.5951 54.0019 38.0884C55.0708 38.5406 56.3452 38.7873 57.7018 38.7873C58.8118 38.7873 59.8395 38.6228 60.7439 38.2939C61.6895 37.9651 62.4705 37.4717 63.1694 36.8551C63.8272 36.2384 64.4027 35.4573 64.8138 34.5529C65.2249 33.6485 65.5127 32.6208 65.5949 31.5108H61.7717C61.6483 32.703 61.2372 33.6896 60.5384 34.4296C59.8395 35.1696 58.894 35.5396 57.7018 35.5396C56.7974 35.5396 56.0574 35.334 55.4407 35.0051C54.8241 34.6763 54.2897 34.2241 53.9197 33.6485C53.5497 33.073 53.2619 32.4152 53.0975 31.7163C52.933 30.9764 52.8508 30.2364 52.8508 29.4964C52.8508 28.6742 52.933 27.9342 53.0975 27.1942C53.2619 26.4543 53.5497 25.7965 53.9197 25.221C54.3308 24.6454 54.8241 24.1521 55.4407 23.8232C56.0574 23.4532 56.7974 23.2888 57.7018 23.2888C58.1951 23.2888 58.6473 23.371 59.0995 23.5355C59.5517 23.6999 59.9217 23.9055 60.2917 24.1932Z" fill="white"/>
<path fill-rule="evenodd" clip-rule="evenodd" d="M73.4882 35.9918C72.5015 35.9918 71.7204 35.7451 71.186 35.2107C70.6516 34.6763 70.3638 33.8541 70.2816 32.6619H79.6547C79.7369 31.6752 79.6547 30.6886 79.408 29.7842C79.1613 28.8798 78.7914 28.0576 78.2569 27.3176C77.7225 26.5776 77.0647 26.0021 76.2425 25.591C75.4203 25.1387 74.4748 24.9332 73.3649 24.9332C72.3782 24.9332 71.4738 25.0976 70.6516 25.4676C69.8294 25.7965 69.1305 26.2898 68.555 26.9065C67.9794 27.5231 67.5272 28.2631 67.1984 29.0853C66.8695 29.9075 66.705 30.8119 66.705 31.7986C66.705 32.7852 66.8284 33.7307 67.1572 34.5529C67.445 35.4162 67.8972 36.1151 68.4728 36.7318C69.0483 37.3484 69.7472 37.8006 70.5694 38.1295C71.3916 38.4584 72.296 38.6228 73.3237 38.6228C74.8037 38.6228 76.0781 38.2939 77.1059 37.6362C78.1336 36.9784 78.9147 35.8684 79.408 34.3063H76.2837C76.1603 34.7174 75.8726 35.0874 75.3381 35.4573C74.8448 35.8273 74.2282 35.9918 73.4882 35.9918ZM73.3237 27.6876C74.187 27.6876 74.8448 27.9342 75.2559 28.3864C75.667 28.8386 75.9548 29.5375 76.1192 30.4419H70.3227C70.3227 30.2266 70.3854 29.9799 70.456 29.7019C70.4663 29.6615 70.4767 29.6204 70.4872 29.5786C70.6105 29.2497 70.7749 28.962 70.9805 28.6742C71.2271 28.4275 71.5149 28.1809 71.8849 27.9753C72.296 27.7698 72.7482 27.6876 73.3237 27.6876Z" fill="white"/>
<path d="M84.711 25.3443V27.7698H84.7521C84.9166 27.3587 85.1632 26.9887 85.4099 26.6598C85.6977 26.3309 86.0265 26.0431 86.3965 25.7965C86.7665 25.5498 87.1776 25.3854 87.5887 25.221C87.9998 25.0976 88.452 25.0154 88.9042 25.0154C89.1509 25.0154 89.3976 25.0565 89.6853 25.1387V28.4686C89.5209 28.4275 89.3153 28.3864 89.0687 28.3864C88.822 28.3453 88.6165 28.3453 88.4109 28.3453C87.7532 28.3453 87.2187 28.4686 86.7665 28.6742C86.3143 28.8797 85.9443 29.2086 85.6566 29.5786C85.3688 29.9486 85.1632 30.4008 85.081 30.8941C84.9577 31.3874 84.9166 31.9219 84.9166 32.5385V38.335H81.34V25.3443H84.711Z" fill="white"/>
<path d="M99.2227 27.7287V25.2621H96.5917V21.3566H93.0151V25.2621H90.8363V27.6465H93.0151V35.334C93.0151 35.9507 93.1384 36.4851 93.344 36.8962C93.5906 37.3073 93.8784 37.6362 94.2484 37.8417C94.6184 38.0884 95.0706 38.2117 95.5639 38.294C96.0572 38.3762 96.5916 38.4173 97.1261 38.4173C97.2857 38.4173 97.4549 38.4076 97.6292 38.3976C97.814 38.3871 98.0045 38.3762 98.1949 38.3762C98.5238 38.3762 98.8938 38.3351 99.1816 38.294V35.5396C99.0171 35.5807 98.8116 35.6218 98.6472 35.6218C98.4827 35.6629 98.2772 35.6629 98.0716 35.6629C97.4961 35.6629 97.085 35.5807 96.8794 35.3751C96.6739 35.1696 96.5917 34.7996 96.5917 34.183V27.7287H99.2227Z" fill="white"/>
<path d="M101.032 20.3699H104.608V23.3299H101.032V20.3699Z" fill="white"/>
<path d="M104.608 38.335H101.032V25.3443H104.608V38.335Z" fill="white"/>
<path d="M106.089 25.3443V27.7287H108.226V38.335H111.803V27.7698H114.27V25.3854H111.803V24.6043C111.803 24.0699 111.926 23.6588 112.132 23.4532C112.337 23.2477 112.666 23.1244 113.16 23.1244C113.612 23.1244 114.064 23.1655 114.475 23.2066V20.5344C114.311 20.5139 114.157 20.5036 114.002 20.4933C113.848 20.483 113.694 20.4728 113.53 20.4522C113.201 20.4111 112.913 20.4111 112.584 20.4111C111.104 20.4111 110.035 20.7811 109.295 21.5211C108.596 22.2611 108.226 23.2066 108.226 24.3577V25.3443H106.089Z" fill="white"/>
<path d="M116.407 20.3699H119.984V23.3299H116.407V20.3699Z" fill="white"/>
<path d="M119.984 38.335H116.407V25.3443H119.984V38.335Z" fill="white"/>
<path fill-rule="evenodd" clip-rule="evenodd" d="M127.918 35.9918C126.931 35.9918 126.15 35.7451 125.616 35.2107C125.081 34.6763 124.794 33.8541 124.711 32.6619H134.084C134.167 31.6752 134.084 30.6886 133.838 29.7842C133.591 28.8798 133.221 28.0576 132.687 27.3176C132.152 26.5776 131.494 26.0021 130.672 25.591C129.85 25.1387 128.905 24.9332 127.795 24.9332C126.808 24.9332 125.904 25.0976 125.081 25.4676C124.259 25.7965 123.56 26.2898 122.985 26.9065C122.409 27.5231 121.957 28.2631 121.628 29.0853C121.299 29.9075 121.135 30.8119 121.135 31.7986C121.135 32.7852 121.258 33.7307 121.587 34.5529C121.875 35.4162 122.327 36.1151 122.903 36.7318C123.478 37.3484 124.177 37.8006 124.999 38.1295C125.821 38.4584 126.726 38.6228 127.753 38.6228C129.233 38.6228 130.508 38.2939 131.536 37.6362C132.563 36.9784 133.344 35.8684 133.838 34.3063H130.713C130.59 34.7174 130.302 35.0874 129.768 35.4573C129.275 35.8273 128.658 35.9918 127.918 35.9918ZM127.712 27.6876C128.576 27.6876 129.233 27.9342 129.645 28.3864C130.056 28.8386 130.385 29.5375 130.508 30.4419H124.711C124.711 30.2266 124.774 29.98 124.845 29.702L124.859 29.6442L124.876 29.5786C124.999 29.2497 125.122 28.962 125.369 28.6742C125.575 28.4275 125.904 28.1809 126.274 27.9753C126.685 27.7698 127.137 27.6876 127.712 27.6876Z" fill="white"/>
<path fill-rule="evenodd" clip-rule="evenodd" d="M144.937 36.6495C144.526 37.3484 143.95 37.8417 143.293 38.1706C142.594 38.4994 141.854 38.6228 140.991 38.6228C140.004 38.6228 139.182 38.4172 138.442 38.0472C137.702 37.6772 137.085 37.1428 136.633 36.5262C136.14 35.8684 135.811 35.1284 135.564 34.3062C135.317 33.484 135.194 32.5796 135.194 31.6752C135.194 30.8119 135.317 29.9486 135.564 29.1675C135.811 28.3453 136.181 27.6464 136.633 27.0298C137.126 26.4131 137.702 25.9198 138.442 25.5498C139.182 25.1798 140.004 24.9743 140.949 24.9743C141.731 24.9743 142.471 25.1387 143.128 25.4676C143.827 25.7965 144.362 26.2898 144.773 26.9064H144.814V20.3699H148.39V38.335H144.978V36.6906H144.937V36.6495ZM144.773 30.2363C144.69 29.743 144.485 29.2908 144.238 28.9208C143.992 28.5508 143.663 28.2219 143.293 28.0164C142.923 27.7697 142.429 27.6464 141.854 27.6464C141.278 27.6464 140.785 27.7697 140.374 28.0164C139.963 28.2631 139.634 28.5508 139.387 28.9619C139.141 29.3319 138.976 29.7841 138.853 30.2774C138.73 30.7708 138.688 31.3052 138.688 31.8396C138.688 32.3329 138.73 32.8263 138.853 33.3607C138.976 33.854 139.182 34.3062 139.428 34.7173C139.675 35.1284 140.004 35.4162 140.415 35.6629C140.826 35.9095 141.278 36.0328 141.854 36.0328C142.429 36.0328 142.923 35.9095 143.334 35.6629C143.745 35.4162 144.033 35.1284 144.279 34.7173C144.526 34.3062 144.69 33.8951 144.773 33.3607C144.855 32.8674 144.937 32.3329 144.937 31.7985C144.937 31.2641 144.896 30.7297 144.773 30.2363Z" fill="white"/>
<path fill-rule="evenodd" clip-rule="evenodd" d="M98.0307 67.5232H77.229V124.913H104.937C116.325 124.913 122.368 116.855 122.368 108.428C122.368 101.357 118.503 96.0535 111.433 94.6146V94.4502C116.736 92.2713 119.942 87.667 119.942 81.5828C119.942 75.9507 116.982 71.8808 113.2 69.6198C109.747 67.5232 103.087 67.5232 98.0307 67.5232ZM100.168 92.1891H84.8755V73.9363H100.168C106.746 73.9363 112.378 75.0463 112.378 83.0216C112.378 89.0648 108.843 92.1891 100.168 92.1891ZM103.992 118.458H84.8755V98.6023H102.306C108.719 98.6023 114.762 100.699 114.762 108.181C114.762 114.43 110.569 118.458 103.992 118.458Z" fill="white"/>
<path fill-rule="evenodd" clip-rule="evenodd" d="M98.2775 45.9404C70.5283 45.9404 48 68.4276 48 96.2179C48 123.967 70.4872 146.495 98.2775 146.495C126.027 146.495 148.555 124.008 148.555 96.2179C148.555 68.4276 126.027 45.9404 98.2775 45.9404ZM141.895 96.2179C141.895 120.308 122.368 139.836 98.2364 139.836C74.1459 139.836 54.6187 120.308 54.6187 96.2179C54.6187 72.1275 74.1459 52.6002 98.2364 52.6002C122.368 52.6002 141.895 72.1275 141.895 96.2179Z" fill="white"/>
<path d="M54.4952 155.087C55.893 155.087 57.1263 156.033 57.2907 157.307V157.266H59.9628C59.634 154.347 57.2907 152.703 54.4952 152.703C50.5487 152.703 48.2465 155.622 48.2465 159.404C48.2465 163.104 50.5487 166.023 54.4952 166.023C57.6196 166.023 59.7984 164.008 60.0862 160.843H57.3729C57.1674 162.487 56.2218 163.679 54.4952 163.679C51.9875 163.679 51.042 161.542 51.042 159.445C51.042 157.225 51.9875 155.087 54.4952 155.087Z" fill="white"/>
<path fill-rule="evenodd" clip-rule="evenodd" d="M65.9239 156.321C68.8428 156.321 70.6927 158.253 70.6927 161.172C70.6927 164.09 68.8428 166.023 65.9239 166.023C63.0462 166.023 61.1552 164.09 61.1552 161.172C61.1963 158.212 63.0462 156.321 65.9239 156.321ZM65.9239 164.09C67.6506 164.09 68.185 162.61 68.185 161.172C68.185 159.692 67.6506 158.212 65.9239 158.212C64.1973 158.212 63.704 159.692 63.704 161.172C63.704 162.61 64.2384 164.09 65.9239 164.09Z" fill="white"/>
<path d="M74.5567 156.567H72.1312V165.776H74.6389V161.624C74.6389 159.979 75.2967 158.664 77.1466 158.664C77.4344 158.664 77.8044 158.705 78.0511 158.746V156.403C77.8866 156.362 77.6811 156.321 77.5166 156.321C76.3244 156.321 75.05 157.143 74.5978 158.294H74.5567V156.567Z" fill="white"/>
<path fill-rule="evenodd" clip-rule="evenodd" d="M79.4491 156.567H81.8335V157.76H81.8746C82.4913 156.773 83.4779 156.321 84.629 156.321C87.5067 156.321 88.8222 158.664 88.8222 161.254C88.8222 163.72 87.4656 166.023 84.7934 166.023C83.6834 166.023 82.6557 165.529 82.0391 164.625H81.9568V169.024H79.4491V156.567ZM86.2734 161.172C86.2734 159.692 85.6978 158.212 84.0534 158.212C82.409 158.212 81.8746 159.692 81.8746 161.172C81.8746 162.652 82.4502 164.09 84.0946 164.09C85.739 164.09 86.2734 162.693 86.2734 161.172Z" fill="white"/>
<path fill-rule="evenodd" clip-rule="evenodd" d="M99.5516 161.172C99.5516 158.253 97.7016 156.321 94.7828 156.321C91.9051 156.321 90.0141 158.212 90.0141 161.172C90.0141 164.09 91.9051 166.023 94.7828 166.023C97.6605 166.023 99.5516 164.09 99.5516 161.172ZM97.0439 161.172C97.0439 162.61 96.5094 164.09 94.7828 164.09C93.0562 164.09 92.5629 162.61 92.5629 161.172C92.5629 159.692 93.0562 158.212 94.7828 158.212C96.5094 158.212 97.0439 159.692 97.0439 161.172Z" fill="white"/>
<path d="M103.622 156.567V158.294H103.663C104.115 157.143 105.39 156.321 106.582 156.321C106.746 156.321 106.993 156.362 107.116 156.403V158.746C106.87 158.705 106.5 158.664 106.212 158.664C104.362 158.664 103.704 159.979 103.704 161.624V165.776H101.196V156.567H103.622Z" fill="white"/>
<path fill-rule="evenodd" clip-rule="evenodd" d="M112.378 156.321C110.323 156.321 108.226 157.02 108.062 159.404V159.445H110.61C110.693 158.417 111.35 158.047 112.296 158.047C113.2 158.047 113.94 158.212 113.94 159.281C113.94 160.106 113.013 160.215 111.839 160.354L111.836 160.355C111.548 160.389 111.246 160.424 110.939 160.473C109.377 160.678 107.815 161.172 107.815 163.268C107.815 165.159 109.213 166.023 110.939 166.023C112.049 166.023 113.242 165.694 114.023 164.872C114.023 165.2 114.105 165.488 114.187 165.776H116.736C116.489 165.406 116.407 164.543 116.407 163.72V158.952C116.407 156.732 114.228 156.321 112.378 156.321ZM112.281 161.721C112.926 161.635 113.57 161.55 113.899 161.254H113.94V162.241C113.94 162.775 113.858 164.337 111.885 164.337C111.063 164.337 110.323 164.09 110.323 163.145C110.323 162.199 111.022 161.953 111.803 161.788C111.959 161.764 112.12 161.742 112.281 161.721Z" fill="white"/>
<path d="M121.587 156.567H123.436V158.253H121.587V162.816C121.587 163.679 121.792 163.885 122.655 163.885C122.943 163.885 123.19 163.885 123.436 163.803V165.776C123.025 165.858 122.45 165.858 121.956 165.858C120.394 165.858 119.079 165.488 119.079 163.679V158.253H117.558V156.567H119.079V153.813H121.587V156.567Z" fill="white"/>
<path d="M124.711 155.128H127.219V153.032H124.711V155.128Z" fill="white"/>
<path d="M127.219 156.567H124.711V165.776H127.219V156.567Z" fill="white"/>
<path fill-rule="evenodd" clip-rule="evenodd" d="M133.344 156.321C136.263 156.321 138.113 158.253 138.113 161.172C138.113 164.09 136.222 166.023 133.344 166.023C130.466 166.023 128.616 164.09 128.616 161.172C128.575 158.212 130.466 156.321 133.344 156.321ZM133.344 164.09C135.071 164.09 135.605 162.61 135.605 161.172C135.605 159.692 135.112 158.212 133.344 158.212C131.617 158.212 131.124 159.692 131.124 161.172C131.124 162.61 131.617 164.09 133.344 164.09Z" fill="white"/>
<path d="M142.101 156.567H139.716V165.776H142.224V160.966C142.224 159.116 142.841 158.335 144.197 158.335C145.348 158.335 145.8 159.075 145.8 160.596V165.776H148.308V160.103C148.308 157.842 147.609 156.321 144.937 156.321C143.868 156.321 142.799 156.814 142.142 157.842H142.101V156.567Z" fill="white"/>
<path d="M148.391 173.587H48.2055V180H148.391V173.587Z" fill="white"/>
<path d="M149.254 152.662H149.87V152.415H148.39V152.662H148.966V154.265H149.254V152.662Z" fill="white"/>
<path d="M152.008 154.265H152.337V152.415H151.843L151.309 153.813L150.733 152.415H150.24V154.265H150.569V152.703L151.186 154.265H151.391L152.008 152.703V154.265Z" fill="white"/>
</svg>
