<svg width="200" height="200" viewBox="0 0 200 200" fill="none" xmlns="http://www.w3.org/2000/svg">
<path d="M88.2941 83.9238H85.4138V68H88.2941V83.9238Z" fill="white"/>
<path fill-rule="evenodd" clip-rule="evenodd" d="M92.6171 79.0112H101.871L101.882 78.4618C101.882 76.5611 101.315 75.034 100.182 73.8792C99.0503 72.7175 97.5798 72.137 95.7722 72.137C94.0697 72.137 92.6523 72.7175 91.5202 73.8792C90.3944 75.034 89.8315 76.4877 89.8315 78.2404C89.8315 79.9508 90.3978 81.3768 91.5306 82.5171C92.6633 83.6505 94.1297 84.2171 95.9304 84.2171C97.0908 84.2171 98.0937 84.013 98.9377 83.6048C99.7818 83.189 100.506 82.5524 101.111 81.6931L98.6843 80.5528C97.9107 81.3062 96.9858 81.6827 95.909 81.6827C95.009 81.6827 94.2665 81.4433 93.6829 80.9645C93.1061 80.4788 92.7511 79.8277 92.6171 79.0112ZM97.8506 75.178C98.4135 75.5793 98.7899 76.1003 98.9799 76.741H92.7441C93.0674 76.0297 93.419 75.5336 93.7989 75.252C94.4039 74.8015 95.1077 74.576 95.909 74.576C96.648 74.576 97.2952 74.7767 97.8506 75.178Z" fill="white"/>
<path fill-rule="evenodd" clip-rule="evenodd" d="M112.158 72.4325H115.028V83.9211H112.158V82.7068C111.596 83.2422 111.029 83.6291 110.46 83.8685C109.897 84.1009 109.285 84.2171 108.624 84.2171C107.139 84.2171 105.855 83.6429 104.772 82.4957C103.689 81.3409 103.147 79.9086 103.147 78.1982C103.147 76.4241 103.671 74.9704 104.72 73.837C105.768 72.7037 107.041 72.137 108.539 72.137C109.229 72.137 109.875 72.2671 110.48 72.5273C111.085 72.7881 111.645 73.179 112.158 73.6994V72.4325ZM109.13 74.7981C108.237 74.7981 107.494 75.1144 106.904 75.7481C106.313 76.3749 106.017 77.181 106.017 78.1664C106.017 79.1592 106.316 79.9757 106.914 80.6164C107.519 81.2565 108.261 81.5769 109.14 81.5769C110.048 81.5769 110.801 81.264 111.398 80.6372C111.997 80.0034 112.296 79.1766 112.296 78.1559C112.296 77.1562 111.997 76.3466 111.398 75.7273C110.801 75.1074 110.045 74.7981 109.13 74.7981Z" fill="white"/>
<path fill-rule="evenodd" clip-rule="evenodd" d="M128.753 68H125.883V73.7021C125.369 73.1811 124.81 72.7902 124.205 72.53C123.6 72.2698 122.953 72.1391 122.263 72.1391C120.765 72.1391 119.492 72.7058 118.444 73.8397C117.396 74.9725 116.872 76.4268 116.872 78.2003C116.872 79.9113 117.413 81.3436 118.497 82.4984C119.58 83.6456 120.864 84.2193 122.348 84.2193C123.009 84.2193 123.621 84.103 124.184 83.8712C124.753 83.6318 125.32 83.2443 125.883 82.7095V83.9238H128.753V68ZM120.628 75.7508C121.219 75.1171 121.961 74.8002 122.855 74.8002C123.769 74.8002 124.525 75.1101 125.123 75.7294C125.721 76.3493 126.02 77.1589 126.02 78.1581C126.02 79.1793 125.721 80.0061 125.123 80.6399C124.525 81.2662 123.772 81.5796 122.865 81.5796C121.986 81.5796 121.244 81.2592 120.639 80.6185C120.041 79.9778 119.742 79.1613 119.742 78.1691C119.742 77.1831 120.037 76.3771 120.628 75.7508Z" fill="white"/>
<path fill-rule="evenodd" clip-rule="evenodd" d="M142.624 79.0112H133.37C133.504 79.8277 133.859 80.4788 134.436 80.9645C135.02 81.4433 135.762 81.6827 136.663 81.6827C137.739 81.6827 138.664 81.3062 139.437 80.5528L141.865 81.6931C141.26 82.5524 140.535 83.189 139.691 83.6048C138.847 84.013 137.845 84.2171 136.684 84.2171C134.883 84.2171 133.416 83.6505 132.284 82.5171C131.151 81.3768 130.585 79.9508 130.585 78.2404C130.585 76.4877 131.148 75.034 132.273 73.8792C133.406 72.7175 134.823 72.137 136.525 72.137C138.333 72.137 139.803 72.7175 140.936 73.8792C142.068 75.034 142.635 76.5611 142.635 78.4618L142.624 79.0112ZM139.733 76.741C139.543 76.1003 139.167 75.5793 138.604 75.178C138.048 74.7767 137.401 74.576 136.663 74.576C135.861 74.576 135.157 74.8015 134.552 75.252C134.172 75.5336 133.821 76.0297 133.497 76.741H139.733Z" fill="white"/>
<path d="M146.222 72.4325H143.754V83.9211H146.613V79.2749L146.602 78.7157C146.602 77.1105 146.754 76.0332 147.056 75.4844C147.366 74.9351 147.742 74.6604 148.185 74.6604C148.403 74.6604 148.681 74.7449 149.018 74.9137L149.916 72.4325C149.507 72.2353 149.117 72.137 148.744 72.137C148.217 72.137 147.732 72.2844 147.288 72.5805C146.845 72.876 146.49 73.3091 146.222 73.8792V72.4325Z" fill="white"/>
<path d="M157.837 74.0377L156.053 75.8221C155.329 75.104 154.671 74.7454 154.08 74.7454C153.757 74.7454 153.503 74.8154 153.321 74.9565C153.138 75.0901 153.046 75.2589 153.046 75.463C153.046 75.618 153.103 75.7626 153.215 75.8962C153.335 76.0228 153.623 76.1992 154.08 76.4241L155.135 76.952C156.247 77.5014 157.01 78.0611 157.425 78.6313C157.84 79.2014 158.048 79.8699 158.048 80.6372C158.048 81.6584 157.671 82.5101 156.919 83.1931C156.173 83.876 155.171 84.2171 153.912 84.2171C152.237 84.2171 150.901 83.5626 149.902 82.2528L151.674 80.3209C152.012 80.7147 152.406 81.035 152.856 81.2814C153.313 81.5208 153.718 81.6405 154.07 81.6405C154.45 81.6405 154.756 81.5491 154.988 81.3658C155.22 81.1831 155.336 80.972 155.336 80.7326C155.336 80.2891 154.917 79.856 154.08 79.4339L153.11 78.9481C151.252 78.0114 150.324 76.8393 150.324 75.4318C150.324 74.5234 150.672 73.7491 151.368 73.1084C152.072 72.4608 152.969 72.137 154.059 72.137C154.805 72.137 155.505 72.3023 156.159 72.6331C156.82 72.9569 157.38 73.4253 157.837 74.0377Z" fill="white"/>
<path d="M85.3718 96.4187H84.3482V98.8688H85.3718V107.907H88.2527V98.8688H90.0777V96.4187H88.2527L88.2631 94.9824C88.2631 94.6516 88.3191 94.4336 88.4317 94.3278C88.5864 94.1873 88.8329 94.1167 89.1707 94.1167C89.438 94.1167 89.7792 94.1763 90.1937 94.2966V92.0998C89.4414 91.8251 88.766 91.6881 88.1679 91.6881C87.3382 91.6881 86.6945 91.8749 86.2373 92.2478C85.7869 92.6139 85.5231 93.1135 85.4457 93.7472C85.4036 94.0219 85.3788 94.9124 85.3718 96.4187Z" fill="white"/>
<path fill-rule="evenodd" clip-rule="evenodd" d="M96.6274 96.1248C97.7111 96.1248 98.7272 96.396 99.6769 96.9379C100.634 97.4803 101.379 98.2158 101.914 99.145C102.449 100.074 102.716 101.078 102.716 102.154C102.716 103.238 102.445 104.252 101.903 105.195C101.368 106.139 100.637 106.878 99.7086 107.413C98.7803 107.941 97.7567 108.205 96.6384 108.205C94.9919 108.205 93.5855 107.62 92.4175 106.452C91.2571 105.276 90.6763 103.851 90.6763 102.176C90.6763 100.38 91.3345 98.8842 92.6496 97.6878C93.8031 96.6458 95.1293 96.1248 96.6274 96.1248ZM96.6696 98.8386C95.7765 98.8386 95.0305 99.152 94.433 99.7782C93.8418 100.398 93.5468 101.193 93.5468 102.165C93.5468 103.164 93.8384 103.974 94.4226 104.594C95.0132 105.213 95.7591 105.523 96.6592 105.523C97.5598 105.523 98.3086 105.21 98.9067 104.583C99.5049 103.957 99.8033 103.151 99.8033 102.165C99.8033 101.179 99.5083 100.38 98.9171 99.7678C98.3335 99.1485 97.5841 98.8386 96.6696 98.8386Z" fill="white"/>
<path d="M106.333 96.4203H103.864V107.909H106.723V103.263L106.713 102.703C106.713 101.098 106.864 100.021 107.167 99.4723C107.476 98.923 107.853 98.6483 108.296 98.6483C108.514 98.6483 108.791 98.7327 109.129 98.9016L110.026 96.4203C109.618 96.2231 109.228 96.1248 108.855 96.1248C108.327 96.1248 107.842 96.2723 107.399 96.5684C106.956 96.8638 106.6 97.2969 106.333 97.8671V96.4203Z" fill="white"/>
<path d="M127.674 98.7437L125.279 100.064C124.828 99.592 124.382 99.2647 123.939 99.0814C123.502 98.8987 122.989 98.8068 122.398 98.8068C121.322 98.8068 120.449 99.1306 119.781 99.7788C119.12 100.419 118.79 101.243 118.79 102.25C118.79 103.228 119.109 104.027 119.75 104.646C120.39 105.266 121.231 105.576 122.271 105.576C123.559 105.576 124.561 105.136 125.279 104.256L127.547 105.808C126.316 107.406 124.578 108.205 122.335 108.205C120.316 108.205 118.733 107.607 117.586 106.41C116.447 105.213 115.877 103.812 115.877 102.207C115.877 101.095 116.155 100.071 116.711 99.1346C117.267 98.1984 118.04 97.4623 119.032 96.9275C120.031 96.3926 121.146 96.1248 122.377 96.1248C123.516 96.1248 124.54 96.3538 125.447 96.8112C126.355 97.2617 127.097 97.9058 127.674 98.7437Z" fill="white"/>
<path d="M132.315 107.906H129.435V91.9824H132.315V107.906Z" fill="white"/>
<path d="M135.52 91.6881C136.027 91.6881 136.459 91.8714 136.818 92.2374C137.184 92.6035 137.367 93.047 137.367 93.5674C137.367 94.0815 137.187 94.5215 136.829 94.8875C136.47 95.2466 136.041 95.4265 135.541 95.4265C135.028 95.4265 134.588 95.2432 134.223 94.8771C133.863 94.5042 133.684 94.0537 133.684 93.5252C133.684 93.0186 133.863 92.5855 134.223 92.2264C134.581 91.8673 135.013 91.6881 135.52 91.6881Z" fill="white"/>
<path d="M134.075 96.4187H136.965V107.907H134.075V96.4187Z" fill="white"/>
<path d="M141.911 96.4203H139.02V107.909H141.911V102.798C141.911 101.693 142.006 100.883 142.196 100.37C142.393 99.8557 142.685 99.4579 143.072 99.1763C143.465 98.8877 143.901 98.7437 144.38 98.7437C144.809 98.7437 145.175 98.8559 145.477 99.0814C145.78 99.3064 146.005 99.6516 146.152 100.116C146.307 100.574 146.384 101.316 146.384 102.344V107.909H149.286V102.724C149.286 101.626 149.381 100.831 149.571 100.338C149.761 99.8383 150.049 99.4475 150.436 99.1658C150.83 98.8842 151.273 98.7437 151.766 98.7437C152.413 98.7437 152.898 98.9756 153.222 99.4405C153.546 99.8979 153.707 100.778 153.707 102.08V107.909H156.609V101.172C156.609 99.7921 156.472 98.7963 156.197 98.184C155.93 97.5716 155.487 97.0749 154.868 96.695C154.249 96.3145 153.532 96.1248 152.715 96.1248C151.928 96.1248 151.199 96.3006 150.531 96.6528C149.87 97.0044 149.311 97.5184 148.854 98.1944C148.502 97.5184 148.038 97.0044 147.461 96.6528C146.884 96.3006 146.237 96.1248 145.52 96.1248C144.809 96.1248 144.151 96.2584 143.546 96.5261C142.948 96.7933 142.403 97.1981 141.911 97.7405V96.4203Z" fill="white"/>
<path fill-rule="evenodd" clip-rule="evenodd" d="M167.306 96.4203H170.177V107.909H167.306V106.695C166.744 107.23 166.178 107.617 165.608 107.856C165.045 108.089 164.433 108.205 163.772 108.205C162.288 108.205 161.004 107.631 159.92 106.484C158.837 105.329 158.296 103.896 158.296 102.186C158.296 100.412 158.82 98.9583 159.868 97.8249C160.916 96.6915 162.189 96.1248 163.688 96.1248C164.377 96.1248 165.024 96.2549 165.629 96.5152C166.234 96.7759 166.793 97.1663 167.306 97.6873V96.4203ZM164.278 98.7859C163.385 98.7859 162.643 99.1022 162.052 99.736C161.461 100.363 161.166 101.169 161.166 102.154C161.166 103.146 161.465 103.964 162.062 104.604C162.667 105.244 163.409 105.565 164.289 105.565C165.196 105.565 165.949 105.252 166.547 104.625C167.145 103.991 167.444 103.164 167.444 102.144C167.444 101.144 167.145 100.334 166.547 99.7152C165.949 99.0953 165.193 98.7859 164.278 98.7859Z" fill="white"/>
<path d="M175.768 92.1841H172.898V96.4186H171.421V98.8999H172.898V107.907H175.768V98.8999H177.477V96.4186H175.768V92.1841Z" fill="white"/>
<path fill-rule="evenodd" clip-rule="evenodd" d="M189.99 102.999H180.736C180.87 103.816 181.225 104.467 181.802 104.952C182.386 105.431 183.127 105.671 184.028 105.671C185.104 105.671 186.029 105.294 186.803 104.541L189.23 105.681C188.625 106.54 187.9 107.177 187.056 107.593C186.212 108.001 185.21 108.205 184.049 108.205C182.248 108.205 180.782 107.638 179.649 106.505C178.517 105.365 177.951 103.939 177.951 102.228C177.951 100.476 178.513 99.0219 179.639 97.8671C180.771 96.7054 182.189 96.1248 183.891 96.1248C185.699 96.1248 187.169 96.7054 188.301 97.8671C189.434 99.0219 190 100.549 190 102.45L189.99 102.999ZM187.098 100.729C186.908 100.088 186.533 99.5672 185.97 99.1658C185.414 98.7645 184.767 98.5639 184.028 98.5639C183.226 98.5639 182.523 98.7894 181.918 99.2399C181.538 99.5215 181.186 100.018 180.863 100.729H187.098Z" fill="white"/>
<path fill-rule="evenodd" clip-rule="evenodd" d="M97.0718 120.403H94.2013V121.67C93.6881 121.149 93.1286 120.758 92.5236 120.498C91.9191 120.237 91.2719 120.107 90.5826 120.107C89.0839 120.107 87.8108 120.674 86.763 121.807C85.7146 122.941 85.1903 124.394 85.1903 126.168C85.1903 127.879 85.7325 129.311 86.8155 130.466C87.8986 131.613 89.1826 132.187 90.6669 132.187C91.3279 132.187 91.9399 132.071 92.5028 131.839C93.0726 131.599 93.639 131.212 94.2013 130.677V131.891H97.0718V120.403ZM88.947 123.718C89.5376 123.085 90.2801 122.768 91.1732 122.768C92.0877 122.768 92.844 123.078 93.4421 123.697C94.0397 124.317 94.3387 125.126 94.3387 126.126C94.3387 127.147 94.0397 127.974 93.4421 128.608C92.844 129.234 92.0912 129.547 91.1836 129.547C90.3043 129.547 89.5625 129.227 88.9574 128.586C88.3593 127.946 88.0608 127.13 88.0608 126.137C88.0608 125.151 88.3559 124.345 88.947 123.718Z" fill="white"/>
<path d="M110.681 122.726L108.287 124.046C107.836 123.574 107.39 123.247 106.946 123.064C106.51 122.881 105.997 122.79 105.406 122.79C104.33 122.79 103.457 123.114 102.789 123.761C102.128 124.402 101.797 125.225 101.797 126.232C101.797 127.21 102.117 128.01 102.758 128.629C103.398 129.248 104.238 129.558 105.279 129.558C106.567 129.558 107.569 129.118 108.287 128.238L110.555 129.791C109.324 131.388 107.586 132.187 105.342 132.187C103.324 132.187 101.741 131.589 100.594 130.393C99.4547 129.196 98.8848 127.794 98.8848 126.19C98.8848 125.077 99.1631 124.053 99.7185 123.117C100.274 122.181 101.048 121.445 102.04 120.91C103.039 120.375 104.154 120.107 105.385 120.107C106.524 120.107 107.548 120.336 108.455 120.794C109.363 121.244 110.105 121.888 110.681 122.726Z" fill="white"/>
<path d="M115.967 116.167H113.097V120.401H111.62V122.882H113.097V131.89H115.967V122.882H117.677V120.401H115.967V116.167Z" fill="white"/>
<path d="M119.814 115.671C120.32 115.671 120.753 115.854 121.112 116.22C121.478 116.586 121.66 117.029 121.66 117.55C121.66 118.064 121.481 118.504 121.122 118.87C120.764 119.229 120.335 119.408 119.835 119.408C119.322 119.408 118.882 119.226 118.516 118.86C118.158 118.487 117.978 118.036 117.978 117.508C117.978 117.001 118.158 116.568 118.516 116.209C118.875 115.85 119.308 115.671 119.814 115.671Z" fill="white"/>
<path d="M118.368 120.401H121.26V131.89H118.368V120.401Z" fill="white"/>
<path fill-rule="evenodd" clip-rule="evenodd" d="M131.778 120.92C130.828 120.378 129.812 120.107 128.728 120.107C127.23 120.107 125.904 120.628 124.751 121.67C123.435 122.867 122.777 124.363 122.777 126.158C122.777 127.833 123.358 129.259 124.519 130.435C125.686 131.603 127.093 132.187 128.739 132.187C129.857 132.187 130.881 131.923 131.81 131.395C132.738 130.86 133.469 130.121 134.004 129.178C134.546 128.235 134.816 127.221 134.816 126.137C134.816 125.06 134.549 124.057 134.015 123.127C133.48 122.198 132.735 121.463 131.778 120.92ZM126.533 123.761C127.132 123.134 127.877 122.821 128.771 122.821C129.685 122.821 130.434 123.131 131.018 123.75C131.609 124.363 131.904 125.162 131.904 126.148C131.904 127.133 131.605 127.939 131.008 128.565C130.41 129.192 129.66 129.506 128.76 129.506C127.86 129.506 127.114 129.196 126.523 128.576C125.939 127.956 125.647 127.147 125.647 126.148C125.647 125.176 125.943 124.381 126.533 123.761Z" fill="white"/>
<path d="M136.641 120.403H139.511V121.575C140.165 121.026 140.756 120.646 141.284 120.435C141.818 120.216 142.363 120.107 142.919 120.107C144.059 120.107 145.026 120.505 145.821 121.3C146.489 121.976 146.823 122.976 146.823 124.299V131.891H143.974V126.855C143.974 125.482 143.911 124.57 143.784 124.12C143.665 123.669 143.45 123.328 143.141 123.096C142.838 122.856 142.462 122.737 142.012 122.737C141.428 122.737 140.925 122.934 140.503 123.328C140.088 123.715 139.799 124.253 139.638 124.943C139.553 125.302 139.511 126.08 139.511 127.277V131.891H136.641V120.403Z" fill="white"/>
<path d="M12.9935 92.5645C17.0867 77.2652 32.7872 68.1862 48.0622 72.2854C63.3373 76.3846 72.402 92.1106 68.3093 107.41C64.216 122.709 48.5154 131.788 33.2404 127.688L32.4385 130.687C49.367 135.23 66.7667 125.168 71.3027 108.213C75.8388 91.2577 65.7927 73.8299 48.8647 69.2871C31.9362 64.7439 14.5361 74.8059 10 91.7607L12.9935 92.5645Z" fill="white"/>
<path d="M51.7826 81.0425C41.281 74.9697 27.8529 78.5734 21.7897 89.0917L19.1051 87.5397C26.0245 75.5364 41.3485 71.4239 53.3322 78.3542C65.3163 85.2839 69.4223 100.632 62.5037 112.635C55.5843 124.638 40.2603 128.751 28.2766 121.821L29.8262 119.133C40.3278 125.205 53.7559 121.601 59.8191 111.083C65.8821 100.565 62.2843 87.1152 51.7826 81.0425Z" fill="white"/>
<path d="M36.7665 85.2856C44.9363 83.0923 53.3347 87.949 55.524 96.1323C57.7132 104.316 52.8648 112.727 44.6944 114.92C36.524 117.113 28.1256 112.256 25.9364 104.073L22.9423 104.877C25.575 114.716 35.6725 120.555 45.4963 117.918C55.3202 115.282 61.1501 105.168 58.518 95.3286C55.8854 85.4897 45.7879 79.65 35.964 82.2868L36.7665 85.2856Z" fill="white"/>
</svg>
