<svg width="300" height="51" viewBox="0 0 300 51" fill="none" xmlns="http://www.w3.org/2000/svg">
<path d="M27.8788 49.3646C26.1213 49.3646 24.6493 48.8153 23.463 47.7169C22.3206 46.6184 21.5956 45.1465 21.2881 43.3011H20.8926C20.3653 45.5419 19.201 47.2555 17.3995 48.4418C15.5981 49.5842 13.3792 50.1554 10.7429 50.1554C7.27177 50.1554 4.61351 49.2327 2.76811 47.3873C0.922702 45.5419 0 43.1034 0 40.0716C0 36.4248 1.31815 33.7226 3.95444 31.965C6.63467 30.1636 10.2596 29.2628 14.8291 29.2628H20.2994V27.0879C20.2994 25.4182 19.8601 24.1001 18.9813 23.1335C18.1025 22.1229 16.6306 21.6176 14.5655 21.6176C12.6322 21.6176 11.0944 22.035 9.952 22.8698C8.80961 23.7047 7.86494 24.6493 7.11799 25.7038L1.31815 20.5631C2.72417 18.498 4.4817 16.8942 6.59073 15.7518C8.7437 14.5655 11.6436 13.9723 15.2905 13.9723C20.2116 13.9723 23.9024 15.0488 26.3629 17.2018C28.8235 19.3548 30.0537 22.4964 30.0537 26.6265V41.7852H33.2832V49.3646H27.8788ZM14.3678 43.367C15.9935 43.367 17.3776 43.0155 18.5199 42.3125C19.7063 41.6095 20.2994 40.4671 20.2994 38.8853V34.799H15.5541C11.7315 34.799 9.82019 36.0952 9.82019 38.6876V39.6762C9.82019 40.9504 10.2156 41.8951 11.0065 42.5102C11.7974 43.0814 12.9178 43.367 14.3678 43.367Z" fill="white"/>
<path d="M51.8253 50.1554C49.2329 50.1554 46.9262 49.738 44.905 48.9032C42.8838 48.0244 41.1922 46.8161 39.8301 45.2783C38.4681 43.6965 37.4355 41.7852 36.7325 39.5444C36.0295 37.3035 35.678 34.799 35.678 32.0309C35.678 29.2628 36.0295 26.7803 36.7325 24.5834C37.4355 22.3426 38.4681 20.4313 39.8301 18.8495C41.1922 17.2677 42.8838 16.0594 44.905 15.2246C46.9262 14.3898 49.2329 13.9723 51.8253 13.9723C55.3403 13.9723 58.2622 14.7632 60.5909 16.345C62.9636 17.9268 64.6552 20.1457 65.6658 23.0016L57.7569 26.4288C57.4494 25.1107 56.8122 23.9902 55.8456 23.0675C54.879 22.1448 53.5389 21.6835 51.8253 21.6835C49.848 21.6835 48.3541 22.3426 47.3436 23.6607C46.333 24.9349 45.8277 26.6705 45.8277 28.8674V35.3263C45.8277 37.5232 46.333 39.2588 47.3436 40.533C48.3541 41.8072 49.848 42.4443 51.8253 42.4443C53.5828 42.4443 54.9668 41.9829 55.9774 41.0602C57.0319 40.0936 57.8009 38.8414 58.2842 37.3035L65.8635 40.5989C64.7211 43.8942 62.9416 46.3108 60.525 47.8487C58.1524 49.3865 55.2524 50.1554 51.8253 50.1554Z" fill="white"/>
<path d="M69.9235 0.593165H79.6778V20.5631H80.0073C80.4906 18.6298 81.5891 17.048 83.3027 15.8177C85.0602 14.5875 87.0594 13.9723 89.3002 13.9723C93.6941 13.9723 97.0114 15.5102 99.2522 18.5859C101.493 21.6615 102.614 26.1432 102.614 32.0309C102.614 37.9187 101.493 42.4223 99.2522 45.5419C97.0114 48.6176 93.6941 50.1554 89.3002 50.1554C88.1579 50.1554 87.0814 49.9797 86.0708 49.6282C85.0602 49.3206 84.1375 48.8812 83.3027 48.31C82.5118 47.6949 81.8307 46.9919 81.2596 46.201C80.6884 45.3662 80.2709 44.4874 80.0073 43.5647H79.6778V49.3646H69.9235V0.593165ZM86.0708 42.2466C87.9162 42.2466 89.4321 41.6095 90.6184 40.3353C91.8487 39.0171 92.4638 37.2596 92.4638 35.0627V29.0651C92.4638 26.8682 91.8487 25.1326 90.6184 23.8584C89.4321 22.5403 87.9162 21.8812 86.0708 21.8812C84.2254 21.8812 82.6876 22.3426 81.4573 23.2653C80.271 24.144 79.6778 25.3743 79.6778 26.9561V37.1717C79.6778 38.7535 80.271 40.0057 81.4573 40.9284C82.6876 41.8072 84.2254 42.2466 86.0708 42.2466Z" fill="white"/>
<path d="M112.747 50.0895C110.77 50.0895 109.298 49.6062 108.331 48.6396C107.408 47.629 106.947 46.3548 106.947 44.817V43.4988C106.947 41.961 107.408 40.7087 108.331 39.7421C109.298 38.7315 110.77 38.2262 112.747 38.2262C114.724 38.2262 116.174 38.7315 117.097 39.7421C118.063 40.7087 118.547 41.961 118.547 43.4988V44.817C118.547 46.3548 118.063 47.629 117.097 48.6396C116.174 49.6062 114.724 50.0895 112.747 50.0895Z" fill="white"/>
<path d="M137.236 50.1554C133.897 50.1554 131.085 49.6282 128.8 48.5737C126.515 47.4752 124.472 45.9374 122.67 43.9602L128.404 38.1603C129.635 39.5224 130.997 40.5989 132.491 41.3898C133.985 42.1807 135.676 42.5761 137.565 42.5761C139.499 42.5761 140.839 42.2905 141.586 41.7193C142.333 41.1042 142.706 40.2913 142.706 39.2807C142.706 37.655 141.542 36.6884 139.213 36.3808L135.456 35.9195C127.679 34.9528 123.791 31.3938 123.791 25.2425C123.791 23.5728 124.098 22.057 124.714 20.6949C125.373 19.2889 126.273 18.1025 127.416 17.1359C128.602 16.1253 130.008 15.3564 131.634 14.8291C133.303 14.2579 135.171 13.9723 137.236 13.9723C139.037 13.9723 140.619 14.1042 141.981 14.3678C143.387 14.5875 144.618 14.939 145.672 15.4223C146.771 15.8617 147.759 16.4329 148.638 17.1359C149.561 17.795 150.461 18.5419 151.34 19.3767L145.738 25.1107C144.64 24.0122 143.387 23.1554 141.981 22.5403C140.619 21.8812 139.213 21.5517 137.763 21.5517C136.094 21.5517 134.907 21.8153 134.204 22.3426C133.501 22.8698 133.15 23.5728 133.15 24.4516C133.15 25.3743 133.391 26.0993 133.875 26.6265C134.402 27.1099 135.369 27.4614 136.775 27.6811L140.663 28.2083C148.264 29.2189 152.065 32.69 152.065 38.6217C152.065 40.2913 151.714 41.8292 151.011 43.2352C150.308 44.6412 149.297 45.8715 147.979 46.926C146.705 47.9366 145.145 48.7274 143.299 49.2986C141.498 49.8698 139.477 50.1554 137.236 50.1554Z" fill="white"/>
<path d="M166.337 49.3646C162.954 49.3646 160.383 48.5078 158.626 46.7942C156.912 45.0806 156.055 42.5761 156.055 39.2807V5.40439H165.81V14.7632H172.664V22.3426H165.81V41.7852H172.137V49.3646H166.337Z" fill="white"/>
<path d="M197.894 43.5647H197.565C197.257 44.4435 196.84 45.2783 196.312 46.0692C195.829 46.8601 195.192 47.5631 194.401 48.1782C193.61 48.7934 192.666 49.2767 191.567 49.6282C190.513 49.9797 189.282 50.1554 187.876 50.1554C184.317 50.1554 181.615 48.9911 179.77 46.6624C177.968 44.2897 177.067 40.9065 177.067 36.5126V14.7632H186.822V35.6558C186.822 37.7649 187.195 39.3906 187.942 40.533C188.689 41.6754 189.963 42.2466 191.765 42.2466C192.512 42.2466 193.259 42.1367 194.006 41.917C194.753 41.6973 195.412 41.3898 195.983 40.9943C196.554 40.5549 197.015 40.0277 197.367 39.4126C197.718 38.7974 197.894 38.0724 197.894 37.2376V14.7632H207.648V49.3646H197.894V43.5647Z" fill="white"/>
<path d="M235.969 43.5647H235.639C235.376 44.4874 234.958 45.3662 234.387 46.201C233.816 46.9919 233.113 47.6949 232.278 48.31C231.487 48.8812 230.565 49.3206 229.51 49.6282C228.5 49.9797 227.445 50.1554 226.347 50.1554C221.953 50.1554 218.635 48.6176 216.395 45.5419C214.154 42.4223 213.033 37.9187 213.033 32.0309C213.033 26.1432 214.154 21.6615 216.395 18.5859C218.635 15.5102 221.953 13.9723 226.347 13.9723C228.587 13.9723 230.565 14.5875 232.278 15.8177C234.036 17.048 235.156 18.6298 235.639 20.5631H235.969V0.593165H245.723V49.3646H235.969V43.5647ZM229.576 42.2466C231.421 42.2466 232.937 41.8072 234.124 40.9284C235.354 40.0057 235.969 38.7535 235.969 37.1717V26.9561C235.969 25.3743 235.354 24.144 234.124 23.2653C232.937 22.3426 231.421 21.8812 229.576 21.8812C227.731 21.8812 226.193 22.5403 224.962 23.8584C223.776 25.1326 223.183 26.8682 223.183 29.0651V35.0627C223.183 37.2596 223.776 39.0171 224.962 40.3353C226.193 41.6095 227.731 42.2466 229.576 42.2466Z" fill="white"/>
<path d="M257.745 11.0724C255.767 11.0724 254.317 10.633 253.395 9.75428C252.516 8.83157 252.077 7.66721 252.077 6.26119V4.81123C252.077 3.40521 252.516 2.26282 253.395 1.38405C254.317 0.46135 255.767 0 257.745 0C259.722 0 261.15 0.46135 262.029 1.38405C262.951 2.26282 263.413 3.40521 263.413 4.81123V6.26119C263.413 7.66721 262.951 8.83157 262.029 9.75428C261.15 10.633 259.722 11.0724 257.745 11.0724ZM252.868 14.7632H262.622V49.3646H252.868V14.7632Z" fill="white"/>
<path d="M283.787 50.1554C281.238 50.1554 278.954 49.738 276.932 48.9032C274.955 48.0684 273.264 46.8601 271.858 45.2783C270.495 43.6965 269.441 41.7852 268.694 39.5444C267.947 37.3035 267.574 34.799 267.574 32.0309C267.574 29.2628 267.947 26.7584 268.694 24.5175C269.441 22.2767 270.495 20.3873 271.858 18.8495C273.264 17.2677 274.955 16.0594 276.932 15.2246C278.954 14.3898 281.238 13.9723 283.787 13.9723C286.335 13.9723 288.598 14.3898 290.575 15.2246C292.596 16.0594 294.288 17.2677 295.65 18.8495C297.056 20.3873 298.133 22.2767 298.88 24.5175C299.626 26.7584 300 29.2628 300 32.0309C300 34.799 299.626 37.3035 298.88 39.5444C298.133 41.7852 297.056 43.6965 295.65 45.2783C294.288 46.8601 292.596 48.0684 290.575 48.9032C288.598 49.738 286.335 50.1554 283.787 50.1554ZM283.787 42.4443C285.72 42.4443 287.214 41.8511 288.268 40.6648C289.323 39.4785 289.85 37.7868 289.85 35.5899V28.5379C289.85 26.3409 289.323 24.6493 288.268 23.463C287.214 22.2767 285.72 21.6835 283.787 21.6835C281.853 21.6835 280.36 22.2767 279.305 23.463C278.251 24.6493 277.723 26.3409 277.723 28.5379V35.5899C277.723 37.7868 278.251 39.4785 279.305 40.6648C280.36 41.8511 281.853 42.4443 283.787 42.4443Z" fill="white"/>
</svg>
