<svg width="200" height="200" viewBox="0 0 200 200" fill="none" xmlns="http://www.w3.org/2000/svg">
<path d="M185.306 81.5107C186.847 81.2014 188.384 81.0206 189.905 81.0017C193.253 80.96 196.525 81.7037 199.591 83.5978C199.669 83.6463 199.739 83.7091 199.829 83.7907C199.878 83.835 199.934 83.8849 200 83.9411C199.449 84.8367 198.9 85.7296 198.348 86.6262C197.609 87.828 196.866 89.0364 196.109 90.2664C193.248 88.671 190.289 88.2972 187.177 88.9866C183.174 89.8743 180.726 92.3244 179.915 96.3193C179.107 100.299 179.452 104.135 181.846 107.571C183.679 110.203 187.182 111.606 189.884 110.943C190.625 110.761 191.023 110.514 190.997 109.661C190.959 108.349 190.966 107.037 190.974 105.671C190.978 105.096 190.981 104.511 190.981 103.913H186.691V96.6632H198.718V117.084C193.324 118.54 187.819 119.584 182.337 117.731C175.756 115.506 172.532 110.393 171.472 103.751C170.918 100.278 171.045 96.8304 172.045 93.4367C174.018 86.7396 178.635 82.8499 185.306 81.5107Z" fill="white"/>
<path fill-rule="evenodd" clip-rule="evenodd" d="M159.678 82.3743C160.155 81.6688 160.627 81.3557 161.493 81.3769C163.215 81.419 164.939 81.4114 166.712 81.4035C167.429 81.4003 168.153 81.3971 168.889 81.3971V118.02H161.396V110.605C160.558 110.605 159.727 110.604 158.9 110.603C155.82 110.599 152.809 110.596 149.798 110.641C149.469 110.646 149.077 111.113 148.835 111.452C148.25 112.272 147.676 113.101 147.102 113.929C146.327 115.047 145.552 116.165 144.75 117.263C144.468 117.649 143.925 118.072 143.49 118.085C141.584 118.142 139.675 118.135 137.656 118.128C136.96 118.125 136.249 118.123 135.522 118.123C135.713 117.823 135.89 117.541 136.059 117.271C136.401 116.725 136.711 116.231 137.038 115.749C139.066 112.762 141.094 109.776 143.122 106.789C148.647 98.6549 154.171 90.5207 159.678 82.3743ZM161.29 103.126V93.3325L159.865 95.3994C158.053 98.0263 156.334 100.518 154.535 103.126H161.29Z" fill="white"/>
<path fill-rule="evenodd" clip-rule="evenodd" d="M118.384 82.4228C118.898 81.6585 119.43 81.3554 120.342 81.3775C122.06 81.4192 123.778 81.4114 125.525 81.4035C126.229 81.4003 126.937 81.397 127.652 81.397V118.055H120.244V110.625C120.048 110.616 119.865 110.606 119.69 110.597C119.334 110.578 119.012 110.56 118.691 110.56C117.753 110.558 116.814 110.562 115.876 110.566C113.783 110.575 111.691 110.584 109.601 110.528C108.5 110.499 107.872 110.876 107.295 111.784C106.68 112.753 106.018 113.691 105.355 114.629C104.767 115.462 104.179 116.294 103.624 117.148C103.159 117.864 102.673 118.17 101.801 118.143C100.267 118.097 98.7312 118.105 97.1187 118.114C96.4551 118.118 95.7784 118.121 95.0835 118.121V88.7534C93.8885 88.7534 92.7021 88.7437 91.522 88.7341C88.6767 88.7108 85.8684 88.6878 83.0658 88.802C81.1019 88.882 80.4597 91.1172 81.8689 92.6595C83.471 94.4128 85.1003 96.1413 86.7295 97.8698C87.6614 98.8585 88.5933 99.8471 89.5201 100.84C90.0489 101.407 90.5469 102.005 91.0437 102.601L91.1017 102.671C95.524 107.978 92.7153 114.948 87.0311 116.896C85.1999 117.524 83.2361 117.955 81.309 118.069C79.0609 118.201 76.8036 118.174 74.4464 118.145C73.4272 118.133 72.3895 118.12 71.3257 118.12C71.7073 117.559 72.0828 117.004 72.4543 116.455C73.769 114.514 75.0328 112.647 76.3351 110.808C76.4975 110.579 77.05 110.561 77.423 110.556L77.688 110.553C79.5188 110.53 81.3511 110.507 83.1806 110.561C84.3068 110.594 85.1423 110.252 85.6584 109.224C86.219 108.107 85.6458 107.267 84.9321 106.529C83.8817 105.444 82.8118 104.378 81.742 103.312C81.0589 102.631 80.3758 101.95 79.6978 101.264C79.3959 100.959 79.0916 100.656 78.7873 100.352C77.8393 99.407 76.891 98.4615 76.0137 97.4546C73.5267 94.5995 72.4387 91.3351 73.9425 87.6856C75.4454 84.0388 78.3629 81.6145 82.23 81.5284C90.1835 81.3516 98.142 81.3836 106.184 81.4159C109.362 81.4286 112.553 81.4414 115.762 81.4414C115.37 82.0229 114.984 82.5976 114.602 83.1663C113.432 84.9111 112.299 86.5993 111.117 88.2532C110.895 88.5651 110.262 88.7061 109.814 88.7155C108.187 88.7493 106.559 88.7445 104.908 88.7397C104.32 88.738 103.729 88.7363 103.134 88.7363V104.804C103.725 103.936 104.292 103.103 104.842 102.294C105.998 100.595 107.081 99.0019 108.168 97.4114C109.101 96.0456 110.035 94.681 110.97 93.3164C113.452 89.6922 115.934 86.0683 118.384 82.4228ZM120.141 103.12V93.1656L118.272 95.8776C116.59 98.319 114.976 100.661 113.281 103.12H120.141Z" fill="white"/>
<path d="M0 118.049V81.4829H20.1702V88.7055H7.90212V95.2971H20.1436V102.696H7.87193V118.049H0Z" fill="white"/>
<path fill-rule="evenodd" clip-rule="evenodd" d="M27.3643 81.6279C29.1205 81.6104 30.8715 81.5929 32.6189 81.5959C34.6411 81.5994 36.6584 81.6303 38.673 81.7202C42.6138 81.8963 46.1258 85.6407 46.8741 89.5365C47.7245 93.964 46.1566 97.562 42.4453 100.154C41.8084 100.599 41.1245 100.976 40.3988 101.377C40.0506 101.569 39.6928 101.766 39.3259 101.979L50.6215 118.117C49.8927 118.117 49.1747 118.119 48.465 118.12C46.1184 118.125 43.8625 118.129 41.6078 118.081C41.2738 118.074 40.8802 117.617 40.6329 117.281C38.0053 113.715 35.3911 110.138 32.7771 106.562C32.1193 105.662 31.4615 104.762 30.8035 103.863C30.7255 103.756 30.6475 103.65 30.5261 103.485C30.4243 103.346 30.2918 103.166 30.1032 102.909V118.036H22.4556C22.4554 109.946 22.4555 101.85 22.4556 93.7659C22.4556 89.7275 22.4556 85.6917 22.4556 81.6605C24.0972 81.6605 25.733 81.6442 27.3643 81.6279ZM36.3154 88.7848C35.3702 88.7235 34.4212 88.7163 33.4606 88.7244C33.0847 88.7276 32.707 88.7332 32.3271 88.7388C31.736 88.7475 31.1394 88.7564 30.5353 88.7564V95.3675C31.1317 95.3675 31.7198 95.3766 32.3016 95.3855C33.617 95.4057 34.9006 95.4255 36.1769 95.3391C37.8838 95.2237 39.0498 93.6783 39.0371 91.8551C39.0262 90.2749 37.915 88.889 36.3154 88.7848Z" fill="white"/>
<path fill-rule="evenodd" clip-rule="evenodd" d="M46.6036 104.263C46.6051 96.3499 52.9615 89.9739 60.8854 89.9379C68.7674 89.9024 75.2683 96.4122 75.3004 104.372C75.3325 112.274 68.8351 118.763 60.8582 118.72C52.2718 118.674 46.3205 111.512 46.6036 104.263ZM67.8298 104.4C67.8413 100.484 64.786 97.4072 60.8895 97.4102C57.1528 97.4133 53.9381 100.585 53.9114 104.295C53.8841 108.104 57.0739 111.267 60.9304 111.256C64.7881 111.246 67.8183 108.234 67.8298 104.4Z" fill="white"/>
</svg>
