<svg width="200" height="200" viewBox="0 0 200 200" fill="none" xmlns="http://www.w3.org/2000/svg">
<path d="M191.914 63C191.914 63 191.557 63.0589 191.256 63.1636C191.093 63.2207 190.841 63.3059 190.597 63.4498C190.387 63.5724 190.181 63.7148 190.145 63.9814C190.204 64.3183 190.583 64.6111 190.927 64.881C191.335 65.2016 191.705 65.496 191.955 65.7806C192.433 66.4692 192.961 66.8764 193.19 67.7842C193.253 68.0361 193.358 68.3174 193.437 68.602C193.506 68.8539 193.546 69.0943 193.602 69.3381C193.669 69.6161 193.775 69.8484 193.766 70.115C193.722 71.3139 193.57 72.3689 193.355 73.468C193.179 74.3529 192.881 75.3032 192.573 76.2077C192.308 76.9797 192.067 77.7337 191.709 78.4158C191.409 79.039 191.109 79.7047 190.803 80.3376C190.723 80.5078 190.599 80.6206 190.515 80.7874C190.434 80.9477 190.393 81.162 190.309 81.319C190.079 81.7525 189.916 82.4116 189.733 83.0364C189.6 83.496 189.443 83.8837 189.568 84.2223C190.133 85.4539 192.337 83.8526 192.902 83.4453C194.27 82.4574 195.681 81.5971 197.059 80.6239C197.765 80.125 198.379 79.5787 198.746 78.9883C199.103 78.4158 199.258 77.7861 199.446 76.9846C199.619 76.2469 199.798 75.5878 199.899 74.8583C200.029 73.9276 200.024 72.9266 199.94 71.9551C199.843 70.833 199.527 69.7846 199.034 68.8065C198.828 68.3943 198.639 68.0017 198.376 67.6206C198.051 67.1447 197.622 66.6965 197.223 66.2713C196.654 65.6612 196.038 65.0543 195.289 64.4721C194.95 64.2071 194.543 63.8603 194.178 63.6543C193.454 63.247 192.711 63 191.914 63H191.914ZM46.8801 69.2154C46.6648 69.2206 46.4298 69.2391 46.2216 69.2972C45.5664 69.4804 44.9721 69.9007 44.493 70.1968C43.1562 71.0228 42.4335 72.2773 42.2706 73.7951C42.2031 75.2885 42.4451 76.754 42.3117 78.2522C42.2145 79.3465 42.0499 80.4652 41.9413 81.5644C41.8589 82.3855 41.8161 83.2049 41.6943 84.0178C41.5313 85.0875 41.4029 86.1376 41.2828 87.2073C41.1428 88.4634 40.9387 89.749 40.83 91.0101C40.7427 91.9964 40.7477 92.9663 40.6654 93.9542C40.5469 95.5326 40.3954 97.0439 40.2539 98.4113C40.211 98.8431 40.1584 99.2291 40.1304 99.638C39.979 101.722 39.9345 103.444 39.9247 104.668C39.9181 105.435 39.9233 105.92 39.8013 106.671C39.7272 108.199 39.6301 109.553 39.472 111.087C39.0753 114.938 38.2851 118.691 36.838 122.291C36.0824 124.166 34.9827 125.995 33.3809 127.28C32.6961 127.83 31.8993 128.217 31.0762 128.589C29.8349 129.146 28.5031 129.59 27.2486 129.938C25.1958 130.509 23.2071 130.798 20.8694 130.633C20.2241 130.587 19.5245 130.6 18.8939 130.511C18.1465 130.407 17.4435 130.363 16.7126 130.224C15.9339 130.075 15.1306 129.806 14.3667 129.611C12.6085 129.163 10.8767 128.607 9.18102 127.853C8.42869 127.517 7.6566 127.13 6.83512 126.749C5.96755 126.348 5.06211 125.947 4.44806 125.317C2.787 123.613 3.84554 121.248 4.77731 119.47C5.03742 118.974 5.36832 118.508 5.68275 118.039C6.13382 117.365 6.56184 116.709 6.99975 116.035C7.11999 115.852 7.2829 115.725 7.41131 115.545C7.70598 115.123 8.00725 114.62 8.31674 114.195C8.53734 113.893 8.79415 113.597 9.0164 113.296C9.18267 113.075 9.29626 112.846 9.46911 112.641C10.745 111.128 12.0274 109.62 13.3789 108.184C13.9025 107.627 14.4704 107.118 15.0252 106.59C15.394 106.236 15.7067 105.863 16.0953 105.526C17.6098 104.208 19.1984 103.017 20.8282 101.846C22.0316 100.981 23.2679 100.202 24.5323 99.4337C24.8895 99.2161 25.278 99.0068 25.6435 98.7794C25.9629 98.5831 26.2592 98.3656 26.5901 98.2069C26.7679 98.1235 27.1053 98.0237 27.2486 97.8798C27.6321 97.6819 27.5696 97.0244 27.0839 97.0211C26.5226 97.0881 25.9464 97.152 25.3965 97.3073C25.0706 97.3989 24.7726 97.5576 24.45 97.6754C22.756 98.2936 21.1295 99.2619 19.5935 100.292C18.5564 100.991 17.5242 101.647 16.6303 102.378C15.5701 103.243 14.4111 104.144 13.3789 105.036C12.9822 105.376 12.6958 105.71 12.3089 106.058C11.3228 106.944 10.3433 107.833 9.42796 108.798C8.72995 109.532 7.96774 110.262 7.28784 111.006C6.13876 112.262 5.09339 113.556 4.07766 114.931C2.26185 117.391 -0.0988674 120.326 0.00319983 123.559C0.0789271 125.919 2.47915 127.756 4.24228 129.039C5.24979 129.788 6.42027 130.466 7.53478 131.083C9.52838 132.187 11.5533 133.106 13.6259 133.945C14.2943 134.215 15.0252 134.415 15.7248 134.641C19.7647 135.954 24.1717 136.556 28.3186 135.99C31.3313 135.581 34.446 134.789 37.0026 133.087C39.2744 131.572 40.9157 129.238 42.0236 126.79C43.8082 122.844 44.7729 118.641 45.4396 114.4C45.5269 113.847 45.6503 113.359 45.7277 112.805C45.8429 111.977 45.9154 111.097 46.0158 110.27C46.5195 106.115 46.6298 101.854 46.6331 97.6754C46.6252 97.1192 46.5985 96.5517 46.592 95.9988C46.5771 94.9324 46.5014 93.9134 46.5097 92.8503C46.5176 91.3896 46.6364 89.9078 46.7567 88.4341C46.8324 87.5132 46.918 86.5825 47.0036 85.6535C47.0743 84.8782 47.2423 84.134 47.3328 83.3636C47.4366 82.4951 47.4349 81.6021 47.5798 80.7466C47.751 79.7293 47.8745 78.6759 47.9913 77.6389C48.0456 77.145 48.0357 76.6412 48.156 76.1669C48.365 75.3392 48.7042 74.4184 48.9791 73.509C49.2606 72.5767 49.4795 71.6558 49.2672 70.7693C49.0071 69.6816 48.3189 69.2563 47.4975 69.2154C47.3007 69.2063 47.0954 69.2102 46.8801 69.2154L46.8801 69.2154ZM181.255 79.8061C181.176 79.8071 181.128 79.8224 181.049 79.8879C180.573 79.8011 179.755 80.0056 179.444 80.0923C179.186 80.1658 179.019 80.2362 178.703 80.2968C178.542 80.3262 178.356 80.4391 178.209 80.5012C178.066 80.5601 177.808 80.6435 177.674 80.7057C177.436 80.8136 177.263 80.8938 177.057 80.9919C175.669 81.6543 174.346 82.5408 173.394 83.7725C172.204 85.3165 171.463 87.3741 172.324 89.2518C172.515 89.6689 172.724 90.068 172.982 90.4376C173.921 91.7854 175.236 92.8224 176.522 93.8316C176.851 94.0884 177.314 94.4089 177.839 94.7721C178.017 94.8964 178.19 95.0779 178.374 95.2219C178.496 95.3167 178.621 95.3674 178.744 95.4672C179.09 95.7453 179.464 96.0429 179.814 96.3259C180.69 97.0325 181.477 97.8372 181.955 98.6158C182.251 99.0999 182.452 99.5415 182.407 100.047C182.384 100.328 182.28 100.629 182.119 100.906C181.647 101.725 180.766 102.216 179.814 102.5C179.63 102.556 179.465 102.688 179.279 102.746C178.934 102.85 178.575 102.958 178.25 103.032C177.895 103.115 177.515 103.171 177.139 103.236C176.843 103.29 176.491 103.282 176.193 103.318C175.895 103.354 175.659 103.429 175.37 103.441C175.067 103.454 174.78 103.516 174.464 103.563C174.188 103.606 173.875 103.575 173.6 103.604C173.295 103.637 173.025 103.678 172.736 103.686C172.113 103.702 171.745 103.769 171.048 103.89C170.762 103.94 170.479 103.995 170.184 104.054C170.019 104.087 169.813 104.119 169.69 104.177C169.446 104.291 169.222 104.42 169.114 104.586C168.918 104.936 169.053 105.382 169.237 105.853C169.353 106.141 169.484 106.431 169.649 106.712C169.945 107.204 170.258 107.674 170.431 107.979C170.607 108.333 170.767 108.639 170.842 108.961C170.9 109.201 170.872 109.45 170.883 109.738C170.813 110.101 170.935 110.477 171.13 110.719C171.265 110.884 171.432 110.929 171.624 111.046C172.01 111.311 172.456 111.562 172.941 111.741C173.452 111.931 174.145 111.997 174.711 112.109C175.119 112.19 175.409 112.307 175.822 112.355C176.662 112.451 177.496 112.518 178.209 112.518C178.588 112.507 179.014 112.396 179.403 112.314C180.071 112.175 180.684 111.998 181.296 111.701C181.452 111.625 181.643 111.58 181.79 111.496C181.897 111.437 181.974 111.315 182.078 111.251C182.687 110.871 183.306 110.521 183.807 110.065C184.356 109.561 184.788 108.951 185.247 108.348C185.473 108.05 185.693 107.775 185.905 107.448C186.059 107.211 186.166 106.911 186.317 106.671C186.738 105.995 187.025 105.3 187.181 104.586C187.308 104.013 187.369 103.771 187.428 102.827C187.468 102.209 187.275 101.555 187.14 100.905C187.104 100.734 187.005 100.693 186.934 100.537C186.857 100.366 186.821 100.184 186.729 100.006C186.612 99.7834 186.419 99.5495 186.317 99.3516C186.103 98.9361 185.833 98.5452 185.535 98.1657C185.301 97.8664 184.984 97.5867 184.712 97.307C184.276 96.8572 183.876 96.4074 183.395 95.9576C183.095 95.6812 182.73 95.3999 182.448 95.0989C181.327 93.9033 180.071 92.9006 179.485 91.5823C179.269 91.0916 179.11 90.5437 179.115 89.9467C179.119 89.4805 179.237 88.9964 179.403 88.4746C179.488 88.2031 179.66 87.9251 179.897 87.6568C180.04 87.4949 180.209 87.3869 180.391 87.2479C180.845 86.893 181.405 86.5757 181.913 86.5528C182.155 86.4186 182.346 86.4627 182.736 86.471C183.069 86.4775 183.466 86.592 183.765 86.4302C184.508 86.7262 185.071 86.0016 185.37 85.4488C185.519 85.174 185.701 84.77 185.782 84.4674C185.864 84.1648 185.838 83.9571 186.029 83.8132L186.111 83.118C186.085 82.5946 185.887 82.3705 185.7 82.0549C185.542 81.7932 185.339 81.4513 185.123 81.237C184.954 81.0669 184.682 80.9099 184.424 80.7464C183.777 80.3391 183.268 80.0578 182.572 79.9285C182.305 79.8778 181.907 79.801 181.543 79.8059C181.447 79.8067 181.334 79.8049 181.255 79.8059L181.255 79.8061ZM67.0466 80.2559C65.7587 80.3332 64.464 80.7312 63.4248 81.4417C61.6436 82.657 60.2064 84.2124 58.9388 85.9397C57.528 87.8632 55.9575 89.6804 54.5763 91.6235C53.1259 93.6631 51.7464 95.8679 50.7899 98.2069C50.4722 98.9838 50.1413 99.8131 49.9256 100.619C49.7412 101.303 49.6902 101.961 49.5964 102.664C49.3214 104.726 49.7742 106.85 50.4606 108.798C51.157 110.762 52.4296 113.101 54.782 113.173C57.7041 113.261 59.8722 111.91 61.9432 110.229C62.847 109.494 63.7672 108.734 64.6184 107.939C65.0217 107.563 65.2653 107.303 65.6473 106.753C65.779 106.565 66.0193 106.254 66.3058 105.894C66.4803 105.674 66.7453 105.482 67.0054 105.485C67.5832 105.491 68.115 107.502 68.3224 108.102C68.7521 109.35 69.6312 110.361 70.5037 111.333C71.0766 111.971 71.5984 112.687 72.3146 113.173C73.164 113.75 74.8284 114.315 75.9775 113.786C76.2441 113.665 76.3166 113.369 76.2655 113.091C75.0934 112.625 73.9822 111.755 73.3435 110.597C72.6372 109.318 72.2882 107.803 72.0676 106.508C71.7746 104.787 71.6742 102.971 71.8618 101.233C72.0067 99.8834 72.5368 98.673 73.0554 97.43C73.5081 96.3455 74.0283 95.2431 74.3724 94.1178C74.6094 93.3114 74.5683 92.4527 74.6605 91.6235C74.723 91.0592 74.9914 90.6961 75.2366 90.1923C75.8425 88.9443 76.5224 87.1877 75.5659 85.9397C75.1757 85.431 74.5551 85.1497 73.9196 85.1627C73.2414 85.1641 72.2553 85.6616 71.6149 85.3672C71.796 84.3417 72.3574 83.4094 71.7795 82.3822C71.2593 81.4597 70.321 80.8005 69.3102 80.5012C68.578 80.2841 67.8193 80.2094 67.0466 80.2559ZM160.306 80.9101C159.67 80.9812 159.002 81.1878 158.413 81.4417C158.117 81.5708 157.89 81.7541 157.631 81.9324C157.407 82.0878 157.134 82.2432 156.932 82.4231C156.55 82.7649 156.234 83.1444 155.903 83.5271C155.759 83.6956 155.587 83.7708 155.45 83.936C155.243 84.1895 155.065 84.5101 154.833 84.7538C154.604 84.9975 154.401 85.2969 154.215 85.6125C154.042 85.9021 153.891 86.2112 153.763 86.5121C153.616 86.8458 153.568 87.1566 153.392 87.4526C153.2 87.7781 153.053 88.0676 152.775 88.2704C152.556 88.4275 152.241 88.5501 151.828 88.5976C150.867 88.7104 149.836 88.8298 149.4 89.8652C148.801 91.2914 149.968 91.8803 149.688 92.9729C149.535 93.5601 149.196 94.072 148.906 94.6085C148.667 95.0419 148.5 95.513 148.371 95.9988C148.119 96.9344 148.068 97.8683 147.918 98.8202C147.854 99.2291 147.874 99.6446 147.877 100.047C147.883 100.577 147.894 101.099 147.96 101.642C148.053 102.401 148.169 103.146 148.371 103.809C148.951 105.709 150.159 107.572 151.664 108.879C152.805 109.871 153.256 110.006 154.01 110.351C154.01 110.351 154.785 110.674 155.779 110.883C156.775 111.092 158.991 111.083 160.43 110.556C161.638 110.122 162.845 109.519 163.928 108.838C164.481 108.488 165.426 107.908 166.151 107.285C166.467 107.011 166.73 106.732 166.933 106.467C167.097 106.248 167.086 106.03 167.056 105.813C167.04 105.682 166.918 105.592 166.768 105.608C166.398 105.613 166.093 105.767 165.698 105.935C165.034 106.22 164.267 106.583 163.722 106.835C162.949 107.193 162.107 107.407 161.294 107.653C160.499 107.893 159.518 108.081 158.454 108.102C158.156 108.108 157.804 108.127 157.508 108.102C156.65 108.032 155.845 107.72 155.203 107.366C155.106 107.312 155.043 107.231 154.956 107.162C154.834 107.067 154.689 106.993 154.586 106.876C154.263 106.516 154.031 106.035 153.804 105.608C153.738 105.484 153.682 105.412 153.639 105.281C153.598 105.148 153.557 104.965 153.516 104.831C153.44 104.599 153.396 104.375 153.351 104.136C153.318 103.968 153.269 103.778 153.269 103.604C153.269 102.792 153.231 102.005 153.31 101.192C153.348 100.793 153.428 100.085 153.639 99.4336C153.761 99.0574 153.906 98.6043 154.174 98.4931C154.327 98.552 154.434 98.7515 154.545 98.902C154.714 99.1294 154.859 99.3158 155.038 99.4745C155.462 99.8474 156.02 99.921 156.561 99.9243C157.129 99.9014 157.691 99.7558 158.207 99.5154C158.775 99.252 159.373 98.9707 159.977 98.6976C160.241 98.5781 160.502 98.4997 160.759 98.3704C161.014 98.2429 161.246 98.0531 161.459 97.8797C162.489 97.0358 163.294 95.9317 163.928 94.7721C164.083 94.5153 164.28 94.2585 164.422 93.9951C164.677 93.5241 164.89 93.017 165.081 92.5231C165.336 91.8655 165.578 91.2031 165.657 90.5194C165.764 89.5904 165.619 88.645 165.245 87.698C165.015 87.1206 164.715 86.5661 164.504 85.9806C164.287 85.3688 164.252 84.7326 164.134 84.0996C163.992 83.501 163.813 82.8614 163.475 82.3413C162.837 81.3517 161.923 80.9494 160.924 80.9101C160.718 80.9023 160.519 80.8864 160.306 80.9101ZM91.946 81.1146C89.6709 81.0147 88.1136 81.9651 86.5957 83.2C84.8606 84.6132 83.407 86.3862 82.0686 88.2704C80.2017 90.8956 78.674 93.7825 77.5825 96.653C75.9412 100.971 74.5304 106.586 77.8295 110.515C80.0058 113.106 83.2176 113.503 86.3488 112.928C88.4083 112.55 90.4068 111.725 92.1107 110.883C93.1412 110.373 94.1833 109.756 94.9916 108.92C95.39 108.506 95.4443 108.21 95.4443 107.775C95.4443 107.447 95.2435 107.254 94.4977 107.489C94.0269 107.636 93.5363 107.798 93.0984 108.021C92.7115 108.214 92.3609 108.474 91.946 108.593C91.0982 108.835 90.285 109.134 89.4355 109.37C87.2213 109.983 84.7503 110.185 82.6448 109.084C80.182 107.797 79.8494 105.863 80.0519 103.441C80.4454 98.7385 82.5592 94.3386 85.7315 90.8466C86.2895 90.2348 86.9793 89.767 87.6246 89.2518C87.8304 89.0883 88.1103 88.8478 88.4066 88.5976C88.7737 88.2852 89.1622 87.9711 89.5178 88.0251C90.1895 88.1265 90.5352 88.7971 90.9995 89.2109C91.6168 89.7605 92.5403 89.803 93.2219 89.3335C94.748 88.2786 95.6485 85.8922 95.4443 84.0995C95.2303 82.2202 93.8639 81.1979 91.946 81.1145V81.1146ZM116.187 82.0551C115.791 82.0761 115.347 82.1798 114.952 82.5049C114.753 82.6684 114.696 82.6226 114.5 82.832C114.218 83.0495 113.914 83.3685 113.635 83.7725C113.102 83.6661 112.7 83.5451 112.236 83.4862C111.377 83.3733 110.47 83.2114 109.602 83.3227C108.883 83.4158 108.15 83.5173 107.462 83.936C107.218 84.0849 106.935 84.1699 106.68 84.304C106.296 84.5085 105.835 84.8356 105.486 85.081C105.134 85.3263 104.884 85.4637 104.581 85.7352C104.141 86.1327 103.603 86.5498 103.141 86.9619C102.877 87.1975 102.65 87.4117 102.4 87.6571C101.6 88.4438 100.859 89.2289 100.218 90.1514C99.8135 90.7353 99.3887 91.2571 99.0249 91.787C98.429 92.6637 97.9022 93.5257 97.5021 94.4449C97.3194 94.8637 97.1103 95.2366 96.9259 95.6717C96.6197 96.3913 96.3481 97.1813 96.144 97.9206C95.7588 99.3126 95.6797 100.739 95.9382 102.132C96.088 102.931 96.3037 103.685 96.7613 104.463C97.4313 105.606 98.8504 106.401 100.177 106.303C101.223 106.228 102.296 105.631 103.305 105.036C103.985 104.635 104.647 104.269 105.239 103.932C105.595 103.729 105.956 103.564 106.31 103.359C106.525 103.225 106.896 103.083 107.215 102.909C107.636 102.679 108.086 102.378 108.367 102.664C108.535 102.836 108.59 103.212 108.614 103.523C108.659 104.077 108.586 104.587 108.573 104.79C108.542 105.23 108.438 105.747 108.367 106.221C108.292 106.72 108.236 107.144 108.203 107.612C108.176 107.942 108.055 108.281 107.997 108.593C107.944 108.868 107.976 109.141 107.915 109.411C107.76 110.08 107.602 110.744 107.544 111.455C107.473 112.335 107.339 113.232 107.256 114.113C106.947 117.399 106.645 120.664 106.721 123.968C106.732 124.966 106.807 126.171 106.968 127.362C107.131 128.553 107.398 129.721 108.038 130.551C108.208 130.774 108.369 130.879 108.532 130.879C108.649 130.879 108.794 130.88 108.902 130.797C109.543 130.303 109.997 128.517 110.137 128.016C110.499 126.699 110.751 125.358 111.043 124.009C111.406 122.327 111.795 120.654 112.113 118.979C112.453 117.188 112.661 115.705 112.853 114.522C112.853 114.522 112.898 114.112 113.018 113.377C113.109 112.826 113.278 112.077 113.388 111.169C113.443 110.729 113.472 110.06 113.594 109.247C113.677 108.709 113.807 108.112 113.923 107.448C114.091 106.506 114.271 105.5 114.5 104.381C114.852 102.667 115.305 100.778 115.776 98.902C115.915 98.341 116.123 97.7816 116.269 97.2255C116.381 96.8035 116.403 96.3733 116.516 95.9579C116.91 94.4891 117.341 93.0252 117.669 91.5417C117.726 91.2816 117.715 91.0167 117.792 90.7648C118.004 90.0729 118.095 89.4546 118.245 88.7202C118.373 88.1003 118.658 87.4968 118.78 86.8802C118.956 85.9838 119.017 85.0891 118.903 84.1814C118.831 83.6089 118.508 83.11 118.08 82.7093C117.616 82.271 117.115 82.0927 116.557 82.0551C116.438 82.0459 116.319 82.0485 116.187 82.0551H116.187ZM126.6 82.7093C126.142 82.7357 125.609 82.8596 125.077 83.2C124.453 83.6007 124.013 84.1307 123.636 84.713C123.554 84.8438 123.422 84.9861 123.348 85.1219C123.205 85.3787 123.101 85.6289 122.978 85.8988C122.894 86.082 122.81 86.203 122.731 86.3895C122.601 86.697 122.486 87.0683 122.36 87.3708C122.25 87.6849 122.115 87.9695 121.99 88.2704C121.855 88.5845 121.753 88.9345 121.62 89.2518C121.481 89.5789 121.3 89.8619 121.167 90.1923C120.852 90.9643 120.576 91.8034 120.344 92.6049C119.748 94.6477 119.285 96.6857 118.903 98.7793C118.832 99.2602 118.795 99.8327 118.739 100.333C118.684 100.798 118.607 101.208 118.574 101.683C118.444 103.631 118.553 105.638 119.274 107.407C119.381 107.667 119.511 107.937 119.644 108.184C119.751 108.384 119.848 108.524 119.973 108.716C120.281 109.184 120.714 109.738 121.126 110.106C121.411 110.361 121.662 110.49 121.99 110.679C122.683 111.078 123.449 111.285 124.295 111.292C124.957 111.292 125.561 111.207 126.147 111.006C126.853 110.762 127.52 110.396 128.205 110.024C128.672 109.769 129.054 109.363 129.439 109.002C129.836 108.632 130.253 108.292 130.592 107.857C130.995 107.337 131.377 106.84 131.744 106.303C132.019 105.901 132.289 105.449 132.567 105.077C133.022 104.471 133.433 103.776 133.802 103.114C134.367 102.095 135.153 101.267 135.777 100.292C136.047 102.592 134.956 105.075 135.901 107.285C136.182 107.944 136.459 108.637 136.847 109.206C137.315 109.892 137.906 110.384 138.617 110.76C139.175 111.056 139.832 111.251 140.593 111.251C140.858 111.246 141.128 111.267 141.375 111.21C141.556 111.166 141.699 111.032 141.868 110.965C142.553 110.692 143.151 110.25 143.679 109.697C144.045 109.311 144.784 108.538 144.585 107.939C144.366 107.28 143.396 108.029 143.062 108.184C142.512 108.439 141.835 108.85 141.251 108.43C140.711 108.04 140.677 107.139 140.716 106.549C140.741 106.182 140.843 105.853 140.922 105.485C141.078 104.758 141.309 104.007 141.539 103.318C142.451 100.577 143.655 97.9567 144.79 95.3037C144.911 95.0256 145.039 94.7361 145.161 94.445C145.243 94.2487 145.324 94.0328 145.408 93.8316C145.651 93.2559 145.869 92.708 146.107 92.1142C146.55 91.0085 146.99 89.8783 147.013 88.7612C147 88.0219 146.667 87.4838 146.149 87.1256C145.627 86.7674 144.922 86.6005 144.256 86.594C143.701 86.5888 143.041 86.8213 142.486 87.0438C142.073 87.2106 141.748 87.3333 141.375 87.5754C141.19 87.6964 140.927 87.8109 140.757 87.9434C140.547 88.1069 140.44 88.3016 140.263 88.475C139.534 89.1848 139.055 89.9895 138.617 90.8875C138.377 91.3815 138.217 91.9163 138.041 92.4414C137.926 92.7881 137.782 93.1136 137.671 93.4636C137.447 94.1522 137.246 94.8588 136.93 95.5082C136.777 95.8222 136.53 96.1215 136.312 96.4486C136.168 96.6645 136.046 96.8984 135.901 97.1029C135.763 97.2975 135.578 97.4578 135.448 97.6345C135.287 97.8504 135.165 98.0859 134.995 98.2887C133.31 100.304 131.691 102.337 129.81 104.177C129.657 104.326 128.656 105.306 127.546 106.262C127.294 106.478 127.105 106.714 126.846 106.917C126.623 107.093 126.321 107.231 126.106 107.366C125.957 107.461 125.878 107.535 125.735 107.612C125.465 107.756 125.189 107.893 124.953 107.98C124.522 108.137 124.16 108.233 123.966 107.98C123.822 107.772 123.798 107.528 123.801 107.244C123.805 106.881 123.852 106.482 123.883 106.181C123.964 105.427 124.074 104.677 124.212 103.932C124.415 102.837 124.647 101.715 124.871 100.619C125.062 99.6888 125.222 98.7843 125.488 97.8798C125.544 97.5167 125.678 97.1356 125.776 96.7758C125.946 96.164 126.107 95.5638 126.311 94.9766C126.453 94.5693 126.563 94.1637 126.682 93.7499C126.937 92.8535 127.2 91.9605 127.546 91.092C128.381 88.9689 130.221 86.455 129.192 84.2223C129.192 84.2223 128.873 83.7186 128.41 83.3227C127.997 82.967 127.362 82.6652 126.6 82.7094V82.7093ZM159.195 88.3931C159.6 88.4193 159.659 88.4928 159.936 88.8429C160.186 89.1815 160.267 89.7 160.306 90.1923C160.334 90.5227 160.382 90.804 160.347 91.1328C160.306 91.5319 160.226 91.931 160.142 92.2368C159.915 93.0546 159.365 94.7099 158.454 95.4672C158.12 95.7485 157.778 95.8761 157.343 95.8761C157.123 95.8761 156.821 95.4901 156.726 95.3445C156.477 94.9602 155.796 94.7606 155.738 94.3632C155.682 94.108 155.819 93.861 155.903 93.6271C156.245 92.6785 156.698 91.8541 157.178 90.9692C157.526 90.3313 157.997 89.7261 158.331 89.0883C158.38 88.995 158.504 88.8233 158.619 88.6793C158.734 88.537 158.836 88.434 158.948 88.434C159.039 88.4536 159.11 88.4405 159.195 88.3932L159.195 88.3931ZM65.6473 88.4749C66.3215 88.422 67.0062 88.5719 67.2112 89.3336C67.2689 89.543 67.2424 89.857 67.2523 90.0696C67.2641 90.3199 67.2885 90.4753 67.2934 90.7239C67.2973 90.8711 67.2753 91.1115 67.2934 91.2555C67.3148 91.4207 67.3987 91.5041 67.458 91.6644C67.6852 92.0291 67.9107 91.8786 68.0342 91.9915C68.2828 92.1354 68.3832 92.474 68.4457 92.7684C68.5198 93.1201 68.5149 93.4636 68.4457 93.8725C68.3617 94.3615 68.2383 94.8064 68.1577 95.0992C67.7642 96.4976 67.193 97.8912 66.8818 99.3109C66.5163 100.976 65.3162 102.348 64.2067 103.604C62.6921 105.322 60.9636 107.026 58.9387 108.143C57.2052 109.102 54.5992 109.429 53.6707 107.244C53.4814 106.797 53.4205 106.362 53.3414 105.894C53.2097 105.108 53.1472 104.283 53.2591 103.482C53.3283 102.994 53.4567 102.528 53.5884 102.051C53.7744 101.382 53.9835 100.706 54.2469 100.088L54.5761 99.4336C56.2965 96.2261 57.895 94.0638 60.7084 91.2963C61.2335 90.7811 61.8114 90.2692 62.4369 89.8243C63.2222 89.2682 64.0717 88.8233 64.9886 88.5976C65.1989 88.5456 65.4224 88.4925 65.6471 88.475L65.6473 88.4749ZM109.479 90.5603C109.804 90.5498 110.172 90.6102 110.466 90.6829C110.819 90.7712 111.034 90.8923 111.125 91.2145C111.148 91.2865 111.166 91.365 111.166 91.4598C111.187 92.1354 110.415 93.2607 109.89 93.5862C109.753 93.6712 109.613 93.7808 109.602 93.9542C109.602 94.332 110.004 94.4841 109.931 94.9764C109.811 95.7615 109.123 96.4583 108.614 97.021C108.145 97.5411 107.564 98.0007 107.009 98.4522C106.469 98.8921 105.946 99.3027 105.404 99.7198C104.991 100.035 104.467 100.278 104.005 100.538C103.748 100.683 103.552 100.839 103.305 100.987C102.447 101.555 101.012 102.173 99.9714 101.764C99.5961 101.617 99.4611 101 99.601 100.17C99.6388 99.9537 99.7294 99.7165 99.8068 99.4744C99.8842 99.234 99.9319 99.0001 100.054 98.7384C100.197 98.4325 100.388 98.1872 100.548 97.8797C100.663 97.6572 100.76 97.3563 100.877 97.1437C101.119 96.7086 101.404 96.3422 101.618 95.9987C101.901 95.5407 102.07 95.1351 102.194 94.9764C102.449 94.6493 102.8 94.3664 103.14 94.036C104.179 93.0284 105.478 92.0209 106.598 91.4598C107.291 91.1098 107.915 90.8874 108.655 90.6829C108.846 90.6298 109.153 90.57 109.478 90.5603H109.479Z" fill="white"/>
</svg>
