<svg width="200" height="200" viewBox="0 0 200 200" fill="black" xmlns="http://www.w3.org/2000/svg">
<path fill-rule="evenodd" clip-rule="evenodd" d="M70.7152 69C70.7152 69 90.5347 108.63 97.6795 127.975L98.2509 129.52H88.1366L86.07 124.856H55.4028L53.315 129.52H43.1726L43.7439 127.975C50.8887 108.63 70.7152 69 70.7152 69ZM81.697 115.036L70.7082 90.4729L59.7193 115.036H81.697Z" fill="white"/>
<path d="M104.958 109.916C104.958 123.374 115.856 131.136 126.837 131.136C137.706 131.136 148.695 123.409 148.759 109.93V70.7141H138.066V109.909C137.833 120.958 127.5 120.965 126.83 120.965C126.16 120.965 115.82 120.93 115.651 109.895V70.7211H104.958V109.916Z" fill="white"/>
<path fill-rule="evenodd" clip-rule="evenodd" d="M0 70.7279H25.4549C37.3184 70.7279 44.7313 80.4072 44.7313 90.1919C44.7313 100.869 36.8599 109.747 25.4549 109.733H10.6926V129.52H0V70.7279ZM10.6926 99.9133H24.8836C29.9408 99.9133 34.0387 95.1931 34.0387 90.1146C34.0387 85.3873 29.9408 80.5477 24.8836 80.5477H10.6926V99.9133Z" fill="white"/>
<path d="M200 129.52H165.743V70.7279H176.435V119.7H200V129.52Z" fill="white"/>
</svg>
