<svg width="200" height="200" viewBox="0 0 200 200" fill="none" xmlns="http://www.w3.org/2000/svg">
<path d="M100.12 84.3369C95.609 84.3369 91.9519 80.6798 91.9519 76.1684C91.9519 71.6571 95.609 68 100.12 68C104.632 68 108.289 71.6571 108.289 76.1684C108.289 80.6798 104.632 84.3369 100.12 84.3369ZM67.9698 68C76.8031 68.0129 83.9572 75.3234 83.9572 84.3369H20C20 75.3143 27.168 68 36.0103 68H67.9698ZM35.9874 133C27.1541 132.987 20 125.677 20 116.663H83.9572C83.9572 125.686 76.7892 133 67.947 133H35.9874ZM116.283 84.5319C116.283 75.5936 123.598 68.3476 132.62 68.3476V133C123.598 133 116.283 125.754 116.283 116.816V84.5319ZM180.936 116.317C180.919 125.152 173.609 132.305 164.599 132.305V68.3476C173.622 68.3476 180.936 75.5191 180.936 84.3655V116.317Z" fill="white"/>
</svg>
