<svg width="200" height="200" viewBox="0 0 200 200" fill="none" xmlns="http://www.w3.org/2000/svg">
<path d="M78.3052 47.0177C92.7663 41.271 109.611 41.6685 123.687 48.3432C119.676 47.7356 115.596 48.1936 111.626 48.8629C100.844 50.8932 90.5968 55.9517 82.5873 63.4665C74.9075 70.9931 69.5257 80.9796 68.006 91.6639C67.0003 99.2344 67.9322 107.175 71.3395 114.066C74.8503 121.296 81.0306 127.225 88.4795 130.286C95.6571 133.314 103.983 133.281 111.254 130.577C122.162 126.586 130 115.808 130.896 104.293C131.461 96.7461 129.62 88.7175 124.534 82.9292C119.68 77.2632 112.579 74.1424 105.474 72.366C105.094 65.3793 108.395 58.4768 113.63 53.9333C116.538 51.3192 120.146 49.6532 123.877 48.5864L124.16 48.4891C134.842 53.5963 143.918 62.0188 149.7 72.3589C154.655 81.1624 157.239 91.3067 156.983 101.412C156.934 114.479 152.035 127.416 143.638 137.408C135.697 146.936 124.591 153.79 112.487 156.535C100.35 159.327 87.2918 158.122 75.9333 152.979C64.8188 148.03 55.4026 139.426 49.4128 128.843C44.4298 120.048 41.7936 109.907 42.0126 99.7897C42.0364 87.1844 46.5255 74.6764 54.3637 64.8192C60.6249 56.9484 68.9307 50.6903 78.3052 47.0177Z" fill="white"/>
</svg>
